<?xml version="1.0" encoding="utf-8"?>
<!-- Generator: Adobe Illustrator 28.0.0, SVG Export Plug-In . SVG Version: 6.00 Build 0)  -->
<svg version="1.1" id="레이어_1" xmlns="http://www.w3.org/2000/svg" xmlns:xlink="http://www.w3.org/1999/xlink" x="0px"
	 y="0px" viewBox="0 0 24 24" style="enable-background:new 0 0 24 24;" xml:space="preserve">
<path d="M5.5,21c-0.4,0-0.8-0.1-1.2-0.4S3.7,20,3.6,19.5l-2.6-9.2C1,10,1,9.7,1.2,9.4S1.7,9,2,9h4.8l4.4-6.6
	c0.1-0.1,0.2-0.2,0.3-0.3C11.7,2,11.8,2,12,2c0.2,0,0.3,0,0.5,0.1c0.2,0.1,0.3,0.2,0.4,0.3L17.2,9H22c0.3,0,0.6,0.1,0.8,0.4
	S23,10,23,10.3l-2.6,9.2c-0.1,0.4-0.4,0.8-0.7,1.1c-0.4,0.3-0.8,0.4-1.2,0.4H5.5z M5.5,19h13l2.2-8H3.3L5.5,19z M12,17
	c0.6,0,1-0.2,1.4-0.6S14,15.6,14,15s-0.2-1-0.6-1.4S12.6,13,12,13s-1,0.2-1.4,0.6S10,14.4,10,15s0.2,1,0.6,1.4S11.4,17,12,17z
	 M9.2,9h5.6L12,4.8L9.2,9z"/>
</svg>
