<?xml version="1.0" encoding="utf-8"?>
<!-- Generator: Adobe Illustrator 28.0.0, SVG Export Plug-In . SVG Version: 6.00 Build 0)  -->
<svg version="1.1" id="레이어_1" xmlns="http://www.w3.org/2000/svg" xmlns:xlink="http://www.w3.org/1999/xlink" x="0px"
	 y="0px" viewBox="0 0 24 24" style="enable-background:new 0 0 24 24;" xml:space="preserve">
<style type="text/css">
	.st0{fill:#FFFFFF;}
</style>
<path d="M10,14h4v-2h-4V14z M10,11h8V9h-8V11z M10,8h8V6h-8V8z M8,18c-0.5,0-1-0.2-1.4-0.6C6.2,17,6,16.5,6,16V4
	c0-0.5,0.2-1,0.6-1.4C7,2.2,7.5,2,8,2h12c0.6,0,1,0.2,1.4,0.6S22,3.4,22,4v12c0,0.5-0.2,1-0.6,1.4S20.6,18,20,18H8z M4,22
	c-0.5,0-1-0.2-1.4-0.6S2,20.5,2,20V6h2v14h14v2H4z M8,4v12V4z M19.2,15.3H8.3V4.4h10.9V15.3z"/>
<rect x="8" y="4.9" class="st0" width="12" height="1.9"/>
<rect x="8" y="9" class="st0" width="12" height="1.9"/>
<rect x="8" y="13" class="st0" width="7.6" height="1.9"/>
</svg>
