<?xml version="1.0" encoding="utf-8"?>
<!-- Generator: Adobe Illustrator 28.0.0, SVG Export Plug-In . SVG Version: 6.00 Build 0)  -->
<svg version="1.1" id="레이어_1" xmlns="http://www.w3.org/2000/svg" xmlns:xlink="http://www.w3.org/1999/xlink" x="0px"
	 y="0px" viewBox="0 0 24 24" style="enable-background:new 0 0 24 24;" xml:space="preserve">
<path d="M5,22c-0.5,0-1-0.2-1.4-0.6S3,20.5,3,20V6c0-0.5,0.2-1,0.6-1.4C4,4.2,4.5,4,5,4h1V2h2v2h8V2h2v2h1c0.6,0,1,0.2,1.4,0.6
	C20.8,5,21,5.4,21,6v14c0,0.5-0.2,1-0.6,1.4S19.6,22,19,22H5z M5,20h14V10H5V20z M5,8h14V6H5V8z M5,8V6V8z M7,14v-2h10v2H7z M7,18
	v-2h7v2H7z"/>
<rect x="4.4" y="5.4" width="15.5" height="3"/>
</svg>
